<?xml version="1.0" encoding="UTF-8"?>
<svg id="Layer_1" xmlns="http://www.w3.org/2000/svg" viewBox="0 0 432 433.03">
  <defs>
    <style>
      .cls-1 {
        fill: #254b90;
      }

      .cls-2 {
        fill: #75a972;
      }
    </style>
  </defs>
  <path class="cls-2" d="M19.4.03C9.79,1.65,1.65,9.79.03,19.4c-.1.63.08,1.3,0,1.94v389.32c.08.64-.1,1.31,0,1.94,1.61,9.61,9.76,17.76,19.37,19.37.63.1,1.3-.08,1.94,0h207.25l1.94-1.94v-162.7c-.03-1.41-.67-1.7-1.94-1.94-15.05-2.84-38.2,2.1-54.23,0v-65.86c16.04-2.1,39.18,2.84,54.23,0,1.46-.28,1.66-.48,1.94-1.94,2.77-14.64-1.3-38.96-.08-55.28,4.1-54.61,43.3-80.96,96.04-78.45l39.62,3.95v58.11h-43.58c-8.49,0-19.38,8.12-22.17,16.57-2.73,8.28-3.7,46.36-2.05,55.09.28,1.46.48,1.66,1.94,1.94,9.19,1.74,59.81-2.21,61.99,0l-7.96,65.65c-2.35,1.99-45.78-1.35-54.03.21-1.27.24-1.91.52-1.94,1.94v162.7l1.94,1.94c35.51-2.48,75.45,3.33,110.4,0,.64-.06,1.32.1,1.94,0,9.61-1.61,17.76-9.76,19.37-19.37.1-.63-.08-1.3,0-1.94V21.34c-.08-.64.1-1.31,0-1.94-1.61-9.61-9.76-17.76-19.37-19.37-.63-.1-1.3.08-1.94,0H21.34c-.64.08-1.31-.1-1.94,0Z"/>
  <path class="cls-2" d="M19.4.03l.97,1.9.97-1.9h389.32l.97,1.9.97-1.9c9.61,1.61,17.76,9.76,19.37,19.37l-1.9.97,1.9.97v389.32l-1.9.97,1.9.97c-1.61,9.61-9.76,17.76-19.37,19.37l-.97-1.9-.97,1.9c-34.96,3.33-74.9-2.48-110.4,0l-1.94-1.94v-162.7l1.94-1.94c8.25-1.56,51.68,1.78,54.03-.21l7.96-65.65c-2.18-2.2-52.8,1.74-61.99,0l-1.94-1.94c-1.65-8.74-.69-46.81,2.05-55.09,2.79-8.46,13.68-16.57,22.17-16.57h43.58v-58.11l-39.62-3.95c-52.74-2.51-91.94,23.84-96.04,78.45-1.22,16.32,2.84,40.63.08,55.28l-1.94,1.94c-15.05,2.84-38.2-2.1-54.23,0v65.86c16.04,2.1,39.18-2.84,54.23,0l1.94,1.94v162.7l-1.94,1.94H21.34l-.97-1.9-.97,1.9c-9.61-1.61-17.76-9.76-19.37-19.37l1.9-.97-1.9-.97V21.34l1.9-.97-1.9-.97C1.65,9.79,9.79,1.65,19.4.03Z"/>
  <path class="cls-1" d="M19.4.03c.63-.1,1.3.08,1.94,0l-.97,1.9-.97-1.9Z"/>
  <path class="cls-1" d="M410.66.03c.64.08,1.31-.1,1.94,0l-.97,1.9-.97-1.9Z"/>
  <path class="cls-1" d="M.03,21.34c.08-.64-.1-1.31,0-1.94l1.9.97-1.9.97Z"/>
  <path class="cls-1" d="M431.97,21.34l-1.9-.97,1.9-.97c.1.63-.08,1.3,0,1.94Z"/>
  <path class="cls-1" d="M228.59,199.54l1.94-1.94c-.28,1.46-.48,1.66-1.94,1.94Z"/>
  <path class="cls-1" d="M300.26,199.54c-1.46-.28-1.66-.48-1.94-1.94l1.94,1.94Z"/>
  <path class="cls-1" d="M230.53,267.33l-1.94-1.94c1.27.24,1.91.52,1.94,1.94Z"/>
  <path class="cls-1" d="M298.32,267.33c.03-1.41.67-1.7,1.94-1.94l-1.94,1.94Z"/>
  <path class="cls-1" d="M.03,412.6c-.1-.63.08-1.3,0-1.94l1.9.97-1.9.97Z"/>
  <path class="cls-1" d="M431.97,412.6l-1.9-.97,1.9-.97c-.08.64.1,1.31,0,1.94Z"/>
  <path class="cls-1" d="M21.34,431.97c-.64-.08-1.31.1-1.94,0l.97-1.9.97,1.9Z"/>
  <path class="cls-1" d="M228.59,431.97l1.94-1.94-1.94,1.94Z"/>
  <path class="cls-1" d="M300.26,431.97l-1.94-1.94,1.94,1.94Z"/>
  <path class="cls-1" d="M412.6,431.97c-.62.1-1.3-.06-1.94,0l.97-1.9.97,1.9Z"/>
</svg>