<?xml version="1.0" encoding="UTF-8"?>
<svg id="Layer_1" xmlns="http://www.w3.org/2000/svg" viewBox="0 0 439.11 437.64">
  <defs>
    <style>
      .cls-1 {
        fill: #98cf97;
      }

      .cls-2 {
        fill: #75a972;
      }

      .cls-3 {
        fill: #c0e0bf;
      }
    </style>
  </defs>
  <path class="cls-2" d="M111.49,2.29c69.1-6.69,147.58,3.8,217.62-.03,155.4,27.84,96.93,205.98,108.16,317.13-3.03,58.07-52.09,111.64-110.68,116.45-68.63,5.63-144.65-4.14-214.06,0C-46.08,410.7,13.2,230.22,1.78,118.26,5.39,59.81,52.68,7.99,111.49,2.29ZM112.91,39.88c-39.07,6.18-68.8,38-73.27,77.18,3.71,65.46-5.61,137.64-.16,202.32,3.41,40.51,35.67,73.87,75.87,78.92,67.1-4.63,142.18,6.02,208.35-.08,41.11-3.78,73.71-41.27,76.03-81.66-3.94-63.85,5.08-133.63-.08-196.78-3.2-39.19-34.78-75.97-74.66-80.13-66.45-6.93-144.45,4.49-212.07.23Z"/>
  <path class="cls-3" d="M209.87,107.91c89.44-7.46,150.99,88.64,106.14,166.9-45.92,80.15-165.99,71.33-200.15-14.45-27.57-69.24,20.02-146.27,94-152.45ZM209.84,145.49c-93.43,11.33-80.42,156.75,18.23,146.98,94.9-9.4,81.43-159.06-18.23-146.98Z"/>
  <path class="cls-1" d="M331.31,74.53c22.27-3.51,39.04,21.23,27.64,40.68-12.11,20.66-46.19,15.15-50.07-8.81-2.31-14.27,7.9-29.59,22.43-31.88Z"/>
</svg>