<?xml version="1.0" encoding="UTF-8"?>
<svg id="Layer_1" xmlns="http://www.w3.org/2000/svg" viewBox="0 0 288 288">
  <defs>
    <style>
      .cls-1 {
        fill: #020202;
      }

      .cls-2 {
        fill: #98cf97;
      }

      .cls-3 {
        fill: #fff;
      }

      .cls-4 {
        fill: #231f20;
      }
    </style>
  </defs>
  <rect class="cls-2" width="288" height="288"/>
  <g>
    <path class="cls-3" d="M244.98,129.93v12.11c-116.83,25.92-163.24,0-163.24,0l-1.6-11.65"/>
    <g>
      <g>
        <polygon class="cls-3" points="58.2 123.44 58.2 123.44 58.2 123.44 58.2 123.44"/>
        <path class="cls-1" d="M72.84,113.5c29.87-9.18,80.45-8.74,112.13-7.79,19.59.59,43.1,1.94,62.09,6.47,3.54.84,20.24,4.63,13.79,10.49-3.15,2.86-20.22,7.17-24.62,7.18-4.16,0-13.4-2.68-18.39-3.35-35.52-4.77-78.6-4.54-114.1.51-4.02.57-11.7,2.88-14.98,2.89-2.06.01-7.29-1.31-9.6-1.83-11.31-2.53-27.43-8.08-6.31-14.57Z"/>
        <path class="cls-1" d="M58.2,131.89l-1.79.56c-48.72-12.36-65.21,59.18-26.18,81.47.44.3.65.59.7.88l10.71,4.57c.35.13.7.23,1.05.3,13.96,2.65,27.15.33,38.56-8.29,7.27,9.46,15.91,17.91,26.3,23.91,1.51.87,9.9,4.47,10.19,4.96.46.76-.28,3.15,1.35,5.36,7.22,9.78,40.36,11.06,51.65,10.48,7.9-.41,32.72-3.95,36.12-12.07.56-1.34.13-3.24.45-3.77.36-.59,10.37-5.12,12.3-6.32,9.8-6.13,18.73-14.71,25.08-24.49l4.23-7.1c-.34-.57-.29-1.34.37-2.37,12.41-22.63,16.88-48.85,16.45-74.43-5.87,5.61-15.41,7.67-23.35,9.35-37.54,7.94-85.29,8.48-123.41,5.2-12.97-1.12-48.71-4.62-58.92-13.69-.45-.4-.82-.74-1.11-1.13.65,2.38.7,5.69-.74,6.62ZM59.07,149.39c1.93,12.21,4.3,24.28,8.55,35.91.68,1.85,5.03,11.04,4.87,11.85-.38,1.97-8.94,5.81-11,6.35-32.65,8.59-50.79-32.01-28.39-52.73,7.79-7.2,16.94-4.56,25.96-1.38Z"/>
        <path class="cls-1" d="M249.29,199.97c12.41-22.63,16.88-48.85,16.45-74.43-5.87,5.61-15.41,7.67-23.35,9.35-37.54,7.94-85.29,8.48-123.41,5.2-12.97-1.12-48.71-4.62-58.92-13.69-.45-.4-.82-.74-1.11-1.13-.2-.73-.45-1.37-.74-1.83,5.74,5.82,14.02,7.96,21.76,9.78,31.42,7.4,70.85,8.13,103.2,7.13,17.07-.53,68.02-4.22,80.66-14.23l3.02-3.18c.44,25.76-3.5,52.65-15.62,75.54l-2.3,3.85c-.34-.57-.29-1.34.37-2.37Z"/>
        <path class="cls-1" d="M58.2,123.44h0c.29.46.54,1.1.74,1.83-.36-.47-.61-1.01-.74-1.83Z"/>
        <path class="cls-1" d="M30.23,213.92c.44.3.65.59.7.88l-3.4-1.45c-23.99-15.98-26.99-52.27-6.84-73.02,10.59-10.91,23.19-12.31,37.51-8.44l-1.79.56c-48.72-12.36-65.21,59.18-26.18,81.47Z"/>
        <path class="cls-1" d="M58.2,131.89v-8.45c.13.82.38,1.36.74,1.83.65,2.38.7,5.69-.74,6.62Z"/>
      </g>
      <g>
        <g>
          <path class="cls-1" d="M71.23,122.95c0-50.43,40.88-91.3,91.3-91.3s91.3,40.88,91.3,91.3"/>
          <path class="cls-3" d="M80.15,122.95c0-45.52,36.9-82.42,82.42-82.42s82.42,36.9,82.42,82.42v6.98l-164.83.46v-7.45Z"/>
        </g>
        <path class="cls-4" d="M160.17,119.85l1.86-52.6c.13-3.65,3.31-3.66,3.44-.01l1.98,52.6c.06,1.68-.73,3.1-1.72,3.1h-3.84c-.99,0-1.78-1.42-1.72-3.09Z"/>
        <path class="cls-4" d="M163.4,117.9l18.74-36.59c1.3-2.54,3.23-1.63,2.09.98l-16.41,37.7c-.52,1.2-1.48,1.98-2.08,1.7l-2.33-1.11c-.6-.29-.61-1.51,0-2.68Z"/>
      </g>
    </g>
  </g>
</svg>