<?xml version="1.0" encoding="UTF-8"?>
<svg id="Layer_1" xmlns="http://www.w3.org/2000/svg" viewBox="0 0 216 216">
  <defs>
    <style>
      .cls-1 {
        fill: #98cf97;
      }

      .cls-2 {
        fill: #fff;
      }
    </style>
  </defs>
  <g>
    <rect class="cls-1" x="1" y="1" width="214" height="214"/>
    <path class="cls-2" d="M214,2v212H2V2h212M216,0H0v216h216V0h0Z"/>
  </g>
  <path class="cls-2" d="M96.16,156.45c.96,4.08,1.49,6.74.62,10.92-2.75,13.2-18.13,18.84-29.04,10.83-10.28-7.55-9.4-24.05,1.67-30.31.36-.61-1.37-4.86-1.67-6.06-7.92-31.21-14.47-62.79-22.37-94.01-.79-1.97-1.84-3.01-4-3.28-6.38-.78-14.24.74-20.58-.02-6.14-.74-6.45-9.62-.93-11.05,3.2-.83,18.91-.66,22.75-.27,12.56,1.25,14.52,12.97,16.45,23.15l.93.69,115.59-.02c5.18.31,9.29,1.02,8.57,7.4-6.24,20.7-8.98,43.74-15.37,64.23-.3.97-.52,2.11-1.09,2.95-.37.54-2.59,2.22-3.04,2.22h-86.68c.5,4.35.9,10.54,6.3,11.28l70.69.02c13.33,1.17,21.29,14.78,15.21,26.96-4.98,9.97-18.78,13.06-27.56,5.99-6.86-5.52-8.32-13.34-6.06-21.62h-40.41ZM90.91,68.77h-28.69l4.85,21.01h25.46l-1.62-21.01ZM131.31,68.77h-29.09l1.62,21.01h25.86l1.62-21.01ZM171.32,68.77h-28.69l-1.62,21.01h25.46l4.85-21.01ZM93.33,101.09h-23.44l4.85,21.42h20.2l-1.62-21.42ZM128.49,101.09h-23.44l1.21,21.42h20.61l1.62-21.42ZM163.64,101.09h-23.24c-1.08,0-1.61,19.64-2.22,21.42h20.61l4.85-21.42ZM73.66,158.61c-6.49,6.62,4.23,16.96,10.59,9.57,5.95-6.92-4.28-16.01-10.59-9.57ZM152.63,156.55c-8.67,1.46-7.21,15.15,2.29,14.01,9.12-1.1,7.14-15.6-2.29-14.01Z"/>
</svg>