<?xml version="1.0" encoding="UTF-8"?>
<svg id="Layer_1" xmlns="http://www.w3.org/2000/svg" viewBox="0 0 432 432">
  <defs>
    <style>
      .cls-1 {
        fill: #c2c030;
      }

      .cls-2 {
        fill: #98cf97;
      }

      .cls-3 {
        fill: #030401;
      }

      .cls-4 {
        fill: #75a972;
      }

      .cls-5 {
        fill: #828233;
      }
    </style>
  </defs>
  <path class="cls-4" d="M98.82,0c.51.87,2.7.88,3.24,0h230.58c.67.74,1.48.75,2.16,0h4.32c-.3,1.69.84.99,1.87,1.07,51.91,4.35,87.98,39.17,89.92,92.1.04,1.04-.55,2.16,1.08,1.86v88.02c-.89.56-.54,2.05-.55,2.96-.04,4.05.01,8.11,0,12.16,0,8.54-.12,17.11,0,25.66.01.91-.35,2.4.55,2.96v92.88c-.91,2.3-.9,6.45,0,8.64v3.78c-.65.54-.65,1.08,0,1.62v3.78c-1.64-.3-1.03.83-1.08,1.86-2.46,52.96-40.5,89.62-93.17,91.55-1.04.04-2.16-.55-1.86,1.08h-3.78l-.43-.37-.65.37h-8.64c-3.82-.99-8.41-.54-12.42-.54-4.19,0-8.95-.45-12.96.54H124.74c-3.63-.99-8.06-.55-11.88-.54-2.74,0-6.23-.46-8.64.54h-4.86c-.54-.65-1.08-.65-1.62,0h-4.32c.3-1.72-.87-.95-1.88-1.06-20.89-2.26-37.33-6.32-54.22-19.24C14.79,394.46,2.31,368.79,1.08,340.44c-.04-1.04.55-2.16-1.08-1.86v-4.86c.74-.67.75-1.48,0-2.16v-5.94c.89-.56.54-2.05.55-2.96.21-19.7-.01-39.44,0-59.14,0-52.08.66-104.26,0-156.34-.01-.91.35-2.4-.55-2.96v-4.32c.65-.54.65-1.08,0-1.62v-4.32c1.64.3,1.04-.83,1.08-1.86C3.24,41.93,40.39,2.92,91.02,1.08c1.04-.04,2.16.55,1.86-1.08h5.94ZM334.38,320.34c10.68-2.43,40.6-6.59,43.38-19.53,2.19-10.22-9.82-10.07-16.5-12.18-22-6.96-47.58-31.91-54.56-53.98-4.92-15.55,13.48-16.57,23.77-21.09,9-3.95,21.3-13.71,11.37-23.77-12.35-12.51-22.63-.36-34.22-.46-4.73-.04-4.39-1.2-4.16-5.48,1.87-34.82,6.58-62.66-18.06-90.97-35.59-40.89-108.73-39.11-141.98,3.83-21.9,28.28-16.39,55.54-14.87,88.77.17,3.81-1.31,4.07-5.07,4.03-11.08-.13-16.79-8.79-28.64-3.13-8.03,3.84-10.89,11.72-5.18,19.09,6.2,8.01,18.64,9.71,27.35,13.69,14.14,6.45,9.33,14.74,3.31,25.63-10.46,18.91-28.26,36.93-49.15,43.73-7.03,2.29-19.51,1.88-16.79,12.71,1.61,6.44,11.04,10.82,16.78,12.92,8.53,3.12,17.64,4.28,26.47,6.2,2.29,5.74,1.83,17.37,8.37,19.98,5.4,2.15,17.88-1.93,24.4-2.3,27.91-1.6,34.24,13.21,55.72,23.71,16.77,8.19,37.56,9.12,54.88,2.11,23.78-9.63,30.71-27.4,60.63-25.82,6.4.34,17.98,3.92,23.49,2.47,7.41-1.96,6.67-14.35,9.28-20.15Z"/>
  <path class="cls-1" d="M309.96,431.46v.54h-12.96c4.01-.99,8.77-.54,12.96-.54Z"/>
  <path class="cls-5" d="M322.38,432h-12.42v-.54c4.01,0,8.6-.45,12.42.54Z"/>
  <path class="cls-1" d="M124.74,432h-11.88v-.54c3.82,0,8.25-.45,11.88.54Z"/>
  <path class="cls-5" d="M112.86,431.46v.54h-8.64c2.41-1,5.9-.53,8.64-.54Z"/>
  <path class="cls-3" d="M102.06,0c-.54.88-2.73.87-3.24,0h3.24Z"/>
  <path class="cls-3" d="M334.8,0c-.68.75-1.49.74-2.16,0h2.16Z"/>
  <path class="cls-3" d="M0,333.72v-2.16c.75.68.74,1.49,0,2.16Z"/>
  <path class="cls-3" d="M0,99.9v-1.62c.65.54.65,1.08,0,1.62Z"/>
  <path class="cls-3" d="M99.36,432h-1.62c.54-.65,1.08-.65,1.62,0Z"/>
  <polygon class="cls-3" points="332.1 432 331.02 432 331.67 431.63 332.1 432"/>
  <path class="cls-2" d="M334.38,320.34c-2.61,5.79-1.87,18.19-9.28,20.15-5.5,1.45-17.08-2.13-23.49-2.47-29.92-1.58-36.85,16.18-60.63,25.82-17.32,7.01-38.11,6.08-54.88-2.11-21.48-10.49-27.81-25.3-55.72-23.71-6.51.37-19,4.45-24.4,2.3-6.54-2.61-6.08-14.23-8.37-19.98-8.83-1.91-17.94-3.08-26.47-6.2-5.73-2.1-15.16-6.48-16.78-12.92-2.71-10.82,9.76-10.42,16.79-12.71,20.89-6.81,38.69-24.83,49.15-43.73,6.03-10.9,10.83-19.18-3.31-25.63-8.71-3.97-21.15-5.68-27.35-13.69-5.7-7.37-2.85-15.25,5.18-19.09,11.85-5.66,17.56,3.01,28.64,3.13,3.76.04,5.25-.22,5.07-4.03-1.52-33.23-7.03-60.48,14.87-88.77,33.25-42.94,106.4-44.72,141.98-3.83,24.64,28.32,19.93,56.15,18.06,90.97-.23,4.28-.57,5.44,4.16,5.48,11.59.1,21.87-12.05,34.22.46,9.93,10.06-2.37,19.82-11.37,23.77-10.29,4.52-28.7,5.54-23.77,21.09,6.99,22.06,32.57,47.02,54.56,53.98,6.68,2.11,18.69,1.96,16.5,12.18-2.77,12.94-32.69,17.1-43.38,19.53ZM370.44,298.63c-27.98-4.17-51.29-24.84-64.89-48.78-6.35-11.18-12.91-24.29-.4-34.07,7.42-5.8,17.94-6.67,26.04-11.22,4.66-2.62,9.98-7.03,3.04-10.93-7.16-4.03-10.55-.21-17.12,1.7s-12.06,2.8-18.11-.48c-5.07-2.76-3.18-3.4-3.07-7.74.51-20.26,4.45-48.94-2.97-67.76-24.73-62.63-123.73-64.63-152.09-4.15-11.05,23.56-4.5,50.41-4.27,75.22.04,4.53-9.55,6.71-13.19,6.71-7.87.01-11.83-3.5-17.94-4.77-4.78-1-13.77,2.1-10.11,7.95s17.99,8.61,24.2,11.44c18.91,8.62,16.53,20.4,7.8,36.26-13.54,24.59-37.23,46.2-65.77,50.6,4.54,7.27,16.26,9.78,24.29,11.61,3.43.78,14.34,1.97,16.35,3.49,3.72,2.8,5.09,14.89,6.36,19.43,6.8.16,13.4-2.27,20.2-2.7,11.07-.69,22.68.62,32.51,5.87,22.14,11.82,28.92,25.83,58.25,24.42,24.02-1.15,32.47-14.48,51.18-24.42,16.42-8.72,34.28-5.93,51.85-3.2,2.14-.72,2.66-15.92,7.18-19.31,2.3-1.72,19.01-4.18,23.64-5.52,5.83-1.69,14.03-4.01,17.05-9.67Z"/>
</svg>