<?xml version="1.0" encoding="UTF-8"?>
<svg id="Layer_1" xmlns="http://www.w3.org/2000/svg" viewBox="0 0 432 431.98">
  <defs>
    <style>
      .cls-1 {
        fill: #98cf97;
      }

      .cls-2 {
        fill: #75a972;
      }

      .cls-3 {
        fill: #c0e0bf;
      }

      .cls-4 {
        fill: #fafafa;
      }
    </style>
  </defs>
  <path class="cls-2" d="M399.57,26.63c20.98,19.22,29.09,44.87,30.92,72.78-3.78,76.79,4.88,158.14-.06,234.4-3.71,57.29-37.95,92.7-95.5,96.67-77.35-3.43-158.69,4.61-235.57.07-58.7-3.47-93.96-37.94-97.78-96.74-4.97-76.63,3.73-158.4-.06-235.57C5.15,39.66,40.96,4.89,99.35,1.56c77.08,3.94,159.07-5.07,235.58.07,23.38,1.57,47.2,9.03,64.64,25ZM144.52,308.63c-1.21-1.17-2.35-2.3-3.52-3.52-15.2-30.83,5.1-67.93,40.3-67.85,2.06,0,13.6,3.24,13.6.47v-55.07c0-2.59-11.46-1.77-14.06-1.76-.06-3.3,1.23-12.9-1.93-13.89-10.06-3.15-33.36.76-43.72,3.98-61.67,19.15-89.15,92.5-57.24,148.54,4.71,8.27,12.52,19.56,20.86,24.25,3,4.08,6.22,6.08,9.37,9.37,5.58,5.84,5.87,6.55,12.89,11.72,1.67,1.23,2.55,2.16,4.69,3.52,4.31,2.73,5.73,3.59,10.55,5.86,44.16,20.83,95.93,9.56,125.87-29.39,8.6-11.19,20.6-36.91,20.6-50.87v-117.77c8.13,2.17,15.29,7.77,23.45,11.12,12.53,5.14,30.38,9.65,43.91,10.06,1.53.05,6.46,0,6.46-1.84v-51.56c0-2.78-11.51-1.53-14.06-1.76.01-.39-.01-.78,0-1.17.1-2.72.69-11.17-1.09-12.38-16.34-.76-30.76-6.52-44.61-14.57-.49-.64-.69-1.66-1.17-2.34-1.26-1.8-3.05-3.21-4-4.79-2.08-3.45-3.24-11.9-7.71-12.79-.91-4.18-3.2-25.81-4.02-27.03-1.48-2.2-9.51-.67-12.38-1.09-.5-2.71-1.22-14.06-2.93-14.06h-53.32v224.4c0,.55-3.07,9.01-3.67,10.4-10.49,24.45-39.62,32.84-63.13,21.83Z"/>
  <path class="cls-4" d="M267.56,67.24c3.65,17.83,7.64,20.49,17.58,32.81.29.36.4,1.46,1.17,2.34.1.12-.05,1.62,1.12,2.98,1.32,1.52,6.11,5.62,8.25,6.39.48.68.69,1.71,1.17,2.34,10.72,14.02,27.83,25.35,45.7,26.95-.01.39.01.78,0,1.17-.07,1.79-1.15,3.98-1.22,6.39-.3,11.52.31,23.12.05,34.63-26.27-.66-50.42-8.67-72.64-22.27-1.68,36.36,2.19,74.64.04,110.78-4.23,70.88-66.2,110.19-133.63,95.45.69-3.09-1.62-2.23-3.41-2.97-8.21-3.38-15.32-7.97-23.54-11.09-3.15-3.3-6.37-5.29-9.37-9.37-49.73-67.68-1.3-162.56,82.03-162.88.25,14.43-.19,28.93,0,43.36-6.68.17-12.36-1.78-19.22-1.05-35.61,3.8-52.51,46.43-29.97,74.25,3.02,3.73,7.22,5.44,9.35,7.65,1.17,1.21,2.31,2.35,3.52,3.52,1.52,1.47,3.86,6.02,7.02,8.8,21.33,18.81,54.56,11.98,68.47-12.41.87-1.52,5.37-10.42,5.37-11.04V69c0-1.28,2.86-1.68,4.04-1.82,11.73-1.38,26.1,1.14,38.14.06Z"/>
  <path class="cls-1" d="M342.56,142.23c2.55.23,14.06-1.03,14.06,1.76v51.56c0,1.84-4.93,1.89-6.46,1.84-13.53-.41-31.38-4.92-43.91-10.06-8.17-3.35-15.32-8.94-23.45-11.12v117.77c0,13.96-12.01,39.68-20.6,50.87-29.94,38.96-81.71,50.22-125.87,29.39.75-3.88-1.72-1.61-3.78-2.38-1.19-.44-2.84-4.7-6.77-3.48-2.14-1.36-3.02-2.29-4.69-3.52,2.82-5.59,9.6,1.37,14.06,2.34,67.43,14.74,129.4-24.57,133.63-95.45,2.16-36.14-1.72-74.43-.04-110.78,22.22,13.6,46.37,21.61,72.64,22.27.26-11.52-.35-23.11-.05-34.63.06-2.4,1.15-4.59,1.22-6.39Z"/>
  <path class="cls-3" d="M267.56,66.07c.07.38-.08.8,0,1.17-12.04,1.08-26.41-1.44-38.14-.06-1.18.14-4.04.53-4.04,1.82v224.98c0,.61-4.5,9.52-5.37,11.04-13.91,24.4-47.14,31.22-68.47,12.41-3.16-2.78-5.5-7.33-7.02-8.8,23.51,11.01,52.64,2.62,63.13-21.83.59-1.38,3.67-9.84,3.67-10.4V52.01h53.32c1.7,0,2.43,11.35,2.93,14.06Z"/>
  <path class="cls-3" d="M180.85,180.9c-83.33.32-131.75,95.2-82.03,162.88-8.34-4.69-16.15-15.98-20.86-24.25-31.91-56.04-4.43-129.4,57.24-148.54,10.37-3.22,33.66-7.13,43.72-3.98,3.16.99,1.87,10.59,1.93,13.89Z"/>
  <path class="cls-1" d="M141.01,305.11c-2.12-2.2-6.32-3.91-9.35-7.65-22.54-27.83-5.64-70.45,29.97-74.25,6.86-.73,12.54,1.22,19.22,1.05-.19-14.43.25-28.93,0-43.36,2.6,0,14.06-.83,14.06,1.76v55.07c0,2.78-11.55-.46-13.6-.47-35.19-.08-55.5,37.01-40.3,67.85Z"/>
  <path class="cls-3" d="M342.56,141.06c-17.87-1.6-34.98-12.93-45.7-26.95,13.85,8.05,28.26,13.8,44.61,14.57,1.78,1.21,1.19,9.67,1.09,12.38Z"/>
  <path class="cls-1" d="M283.97,94.19c.29,1.34,1,5.62,1.17,5.86.13.19,4.39-.58,1.17,2.34-.77-.89-.88-1.99-1.17-2.34-9.94-12.32-13.93-14.98-17.58-32.81-.08-.37.07-.79,0-1.17,2.88.42,10.9-1.11,12.38,1.09.82,1.22,3.12,22.85,4.02,27.03Z"/>
  <path class="cls-1" d="M108.2,353.16c8.21,3.12,15.32,7.71,23.54,11.09,1.79.74,4.1-.12,3.41,2.97-4.46-.97-11.24-7.93-14.06-2.34-7.02-5.17-7.31-5.88-12.89-11.72Z"/>
  <path class="cls-1" d="M283.97,94.19c4.48.89,5.63,9.34,7.71,12.79.96,1.58,2.74,2.99,4,4.79-2.14-.78-6.94-4.88-8.25-6.39-1.18-1.36-1.02-2.86-1.12-2.98,3.22-2.92-1.04-2.16-1.17-2.34-.17-.24-.88-4.52-1.17-5.86Z"/>
  <path class="cls-1" d="M125.78,368.39c3.93-1.22,5.58,3.04,6.77,3.48,2.06.77,4.53-1.51,3.78,2.38-4.81-2.27-6.24-3.13-10.55-5.86Z"/>
</svg>